<!--
    Based on: Noto Emoji
    License: Apache License 2.0
    Source: https://github.com/googlefonts/noto-emoji/blob/f2a4f72b/svg/emoji_u1f408.svg
-->
<svg xmlns="http://www.w3.org/2000/svg" viewBox="0 0 128 128">
  <path fill="#2f2f2f" d="M74.92 113.83s-5.7-.45-5.93-3.79l-3.24-9.41 14.09-13.1s10.33-.2 10.92-.2c.6 0 3.37 13.3 3.37 13.3l-4.96 8.14-14.25 5.06z"/>
  <path id="stripes" fill="#f79329" d="M35.94.451a3.09 3.09 0 0 0-1.49.35c-6.172 3.262-6.71 22.579-6.708 29.52-3.32 4.105-5.591 8.906-6.441 13.779a43.037 43.037 0 0 0-.291 1.96l-5.18-1.02c-.82-.18-1.66.38-1.82 1.22a1.54 1.54 0 0 0 1.22 1.82l5.518 1.08a30.223 30.223 0 0 0 .023 3.026l-5.671.744a1.54 1.54 0 0 0-1.33 1.74c.1.78.76 1.35 1.53 1.35.08 0 .14 0 .21-.02l5.63-.738c.21 1.142.503 2.269.891 3.375l-4.7 1.343a1.54 1.54 0 0 0-1.071 1.91 1.553 1.553 0 0 0 1.92 1.07l5.105-1.458c1.075 2.022 2.521 3.949 4.445 5.728 3.328 3.073 7.484 5.486 11.926 7.206.07 2.73.167 5.455.235 8.144.06 2.18.49 4.33.34 6.43-.04.76.06 1.56.08 2.3l.128 5.37c.05 1.98.19 3.99 0 5.92-.29 2.97-1.359 8.06 1.791 10.28 1.54 1.08 3.65 1.22 5.5 1.15 1.54-.05 3.27-.27 4.4-1.27.99-.85.88-2.33.87-3.53-.02-1.83-.22-3.66-.18-5.51.04-1.56.07-3.17.06-4.75-.01-.82-.24-2.38.73-2.69.33-.11 1.21-.06 1.56-.07a2.45 2.45 0 0 1 1.56.34c1.13.79 1.02 2.52.96 3.65-.18 3.01.01 6.19-.59 9.09-.95 4.62 2.09 5.73 6.63 5.93 1.76.07 3.68-.68 4.67-2.04 1.26-1.7.04-4 .77-5.95.6-1.57 2.06-2.58 3.64-3.19 2.68-1.02 3.27-1.21 4.04-4.08a9.23 9.23 0 0 1 3.53-5.19c1.13-.81 4.47-2.54 5.57-.66.64 1.08-.52 1.93-1.19 2.55A7.86 7.86 0 0 0 83 98.72c-.91 1.73-1.59 3.38-1.62 5.36-.03 1.45-.64 2.4-2.09 2.63-.78.13-1.59-.09-2.36.06-1.57.3-3.25.93-3.81 2.6-.53 1.55-.16 4.19 1.79 4.47 2.23.31 4.81.03 7.04-.03 2.8-.08 5.61-.32 8.37-.74 5.133-.777 10.068-1.486 12.567-5.771 1.507.616 2.717 1.633 2.812 3.502.23 4.56-5.248 7.488-8.988 8.228-4.11.82-8.291.511-12.451.541-1.91.02-3.81-.01-5.71-.02-2.61-.01-5.05 1.95-3.84 4.76a5.04 5.04 0 0 0 1.68 2.16c2.01 1.28 6.13.901 8.41.991 5.22.21 10.71.21 15.78-1.15 6.96-1.87 13.95-7.55 13.66-15.41-.197-5.026-4.71-9.386-9.562-11.163.108-3.354-.421-6.8-1.149-10.027A29.68 29.68 0 0 0 97.78 77.6c-2.648-3.252-6.332-5.147-9.73-7.315a20.529 20.529 0 0 0 2.603-2.957l5.377 2.031a1.562 1.562 0 0 0 2.01-.898c.3-.8-.098-1.69-.898-2l-4.834-1.826a23.57 23.57 0 0 0 1.361-3.198l5.582 1.223c.12.03.23.04.34.04a1.55 1.55 0 0 0 .33-3.06l-5.418-1.185c.226-1.022.4-2.06.53-3.107l5.179-.578c.85-.09 1.47-.85 1.37-1.71-.09-.85-.882-1.44-1.712-1.37l-4.576.511c.005-.107.014-.213.018-.32.186-4.934-1.038-10.103-3.432-14.809 1.445-6.78 4.945-25.806-.418-30.283-4.24-3.53-16.271 6.68-20.201 10.38-.966.914-1.686 1.574-2.483 2.313a49.03 49.03 0 0 0-7.338-1.332 49.084 49.084 0 0 0-7.445-.218c-.628-.89-1.197-1.687-1.955-2.782C49.266 11.127 41.082.484 35.94.451Z"/>
  <path fill="#2f2f2f" d="M40.729 42.225c-2.635.023-4.93 2.286-5.249 5.304-.34 3.22 1.71 6.062 4.56 6.362 2.85.3 5.44-2.062 5.78-5.272.33-3.22-1.71-6.059-4.56-6.369a4.672 4.672 0 0 0-.531-.025zm34.388 3.62c-2.641.032-4.93 2.287-5.248 5.305-.34 3.21 1.7 6.06 4.55 6.36 2.85.3 5.44-2.06 5.78-5.27.34-3.22-1.699-6.07-4.549-6.37a4.739 4.739 0 0 0-.533-.024zM56.74 54.41a9.84 9.84 0 0 0-.96.04c-.79.06-1.58.25-2.23.57-1.17.59-1.52 1.58-1.55 2.61a3.92 3.92 0 0 0 1.61 3.05 6.65 6.65 0 0 0 1.72.86l-.117 1.106c-.753 1.76-2.496 2.61-4.483 2.204-.72-.14-1.21-.91-1.79-1.34-.36-.27-.71-.38-1.14-.32-.27.03-.54.1-.78.23-1.49.81-.04 2.93.87 3.63a7.27 7.27 0 0 0 4.3 1.37 7 7 0 0 0 3.79-1.01c.176-.112.335-.24.485-.379.116.152.242.297.385.43a6.87 6.87 0 0 0 3.53 1.7c1.55.28 3.19.089 4.49-.561 1.02-.53 2.84-2.34 1.52-3.41-.83-.67-1.56-.4-2.37.12a3.69 3.69 0 0 1-5.57-2.01c-.09-.325-.053-.763-.06-1.167l.026-.244A6.82 6.82 0 0 0 60.4 61.4a3.89 3.89 0 0 0 2.21-2.65c.19-1 .06-2.06-.97-2.88a5.77 5.77 0 0 0-2.06-1.02 9.84 9.84 0 0 0-2.84-.44z"/>
  <path fill="rgba(0, 0, 0, 0.5)" d="M36 12.52c-.73 1.9-2.2 7.37-1.28 11.26.27 1.16 1.75 1.68 2.8 1.18 2.19-1.05 5.61-2.9 6.89-3.54 2.18-1.07 2.93-2.4 1.75-4.03-1.5-2.08-5.24-6.39-7.45-6.81-1.26-.24-2.23.71-2.71 1.94zm51.6 5.26c.41 2 .93 7.63-.63 11.33-.46 1.09-2.01 1.36-2.96.69-1.98-1.4-5.03-3.8-6.2-4.64-1.96-1.42-2.49-2.86-1.05-4.27 1.82-1.8 6.23-5.43 8.48-5.47 1.29-.03 2.1 1.07 2.36 2.36z"/>
</svg>
